<svg xmlns="http://www.w3.org/2000/svg" viewBox="0 0 372 372" style="enable-background:new 0 0 372 372" xml:space="preserve"><path d="M254.864 144.827c-4.798 0-8.701 3.903-8.701 8.701s3.903 8.701 8.701 8.701 8.702-3.903 8.702-8.701-3.903-8.701-8.702-8.701zM99.128 139.785c-4.798 0-8.701 3.903-8.701 8.701s3.903 8.701 8.701 8.701 8.702-3.903 8.702-8.701-3.904-8.701-8.702-8.701zM188.827 94.119c-4.798 0-8.701 3.903-8.701 8.701s3.903 8.701 8.701 8.701 8.702-3.903 8.702-8.701-3.904-8.701-8.702-8.701zM130.504 66.119c-4.798 0-8.701 3.903-8.701 8.701s3.903 8.701 8.701 8.701 8.702-3.903 8.702-8.701-3.904-8.701-8.702-8.701zM258.969 79.556c0-4.798-3.903-8.701-8.702-8.701-4.798 0-8.701 3.903-8.701 8.701s3.903 8.701 8.701 8.701 8.702-3.904 8.702-8.701z"/><path d="M186 0C83.439 0 0 83.439 0 186s83.439 186 186 186 186-83.439 186-186S288.561 0 186 0zM47.584 277.526a165.667 165.667 0 0 1-15.464-29.285c.312-.245.616-.505.904-.792l24.055-24.055 22.319 22.319-31.814 31.813zM186 352c-50.492 0-95.783-22.666-126.254-58.35l65.317-65.318 24.385 24.385a10.001 10.001 0 0 0 14.142 0l25.47-25.471 25.47 25.471a10.001 10.001 0 0 0 14.142 0l23.917-23.917 62.024 62.024C284.15 328.134 237.812 352 186 352zm-46.794-137.811 49.387-49.387 49.856 49.856-16.846 16.846-25.47-25.471a10.001 10.001 0 0 0-14.142 0l-25.47 25.471-17.315-17.315zm187.249 60.19-31.259-31.258 19.726-19.726 24.055 24.055c.288.288.592.547.904.792a165.722 165.722 0 0 1-13.426 26.137zm-4.462-72.198c-3.905-3.905-10.237-3.905-14.143 0l-26.797 26.797-85.39-85.39a10 10 0 0 0-14.142 0L93.539 231.57l-29.39-29.39c-3.905-3.905-10.237-3.905-14.143 0L25.14 227.048A165.738 165.738 0 0 1 20 186C20 94.467 94.467 20 186 20s166 74.467 166 166c0 14.163-1.787 27.915-5.14 41.048l-24.867-24.867z"/></svg>